<svg width="600" height="170" viewBox="0 0 600 170" fill="none" xmlns="http://www.w3.org/2000/svg">
<rect width="290" height="87" fill="#FF267E"/>
<path d="M32.3844 17.65H50.4024C52.5584 17.65 54.6704 17.826 56.7384 18.178C58.8064 18.53 60.6544 19.168 62.2824 20.092C63.9104 20.972 65.2084 22.204 66.1764 23.788C67.1444 25.372 67.6284 27.396 67.6284 29.86C67.6284 32.104 67.0784 34.15 65.9784 35.998C64.9224 37.846 63.6904 39.21 62.2824 40.09C63.2504 40.53 64.1744 41.08 65.0544 41.74C65.9344 42.356 66.7044 43.104 67.3644 43.984C68.0244 44.864 68.5304 45.92 68.8824 47.152C69.2784 48.34 69.4764 49.726 69.4764 51.31C69.4764 53.906 68.9924 56.106 68.0244 57.91C67.1004 59.67 65.8244 61.122 64.1964 62.266C62.5684 63.41 60.6544 64.246 58.4544 64.774C56.2984 65.258 54.0104 65.5 51.5904 65.5H32.3844V17.65ZM40.7664 58.768H51.9204C54.9124 58.768 57.1344 58.13 58.5864 56.854C60.0824 55.534 60.8304 53.686 60.8304 51.31C60.8304 48.846 60.0604 47.02 58.5204 45.832C57.0244 44.644 54.6704 44.05 51.4584 44.05H40.7664V58.768ZM40.7664 37.648H51.1944C53.6584 37.648 55.5944 37.098 57.0024 35.998C58.4104 34.898 59.1144 33.16 59.1144 30.784C59.1144 28.672 58.3884 27.088 56.9364 26.032C55.4844 24.932 53.5704 24.382 51.1944 24.382H40.7664V37.648ZM83.1379 41.542C83.1379 44.446 83.4899 47.02 84.1939 49.264C84.9419 51.508 85.9539 53.4 87.2299 54.94C88.5499 56.436 90.0679 57.58 91.7839 58.372C93.4999 59.12 95.3479 59.494 97.3279 59.494C99.3079 59.494 101.156 59.12 102.872 58.372C104.588 57.58 106.084 56.436 107.36 54.94C108.68 53.4 109.692 51.508 110.396 49.264C111.144 47.02 111.518 44.446 111.518 41.542C111.518 38.638 111.144 36.086 110.396 33.886C109.692 31.642 108.68 29.772 107.36 28.276C106.084 26.736 104.588 25.592 102.872 24.844C101.156 24.052 99.3079 23.656 97.3279 23.656C95.3479 23.656 93.4999 24.052 91.7839 24.844C90.0679 25.592 88.5499 26.736 87.2299 28.276C85.9539 29.772 84.9419 31.642 84.1939 33.886C83.4899 36.086 83.1379 38.638 83.1379 41.542ZM120.164 41.542C120.164 45.238 119.636 48.604 118.58 51.64C117.524 54.676 116.006 57.294 114.026 59.494C112.046 61.65 109.648 63.344 106.832 64.576C104.016 65.764 100.848 66.358 97.3279 66.358C93.8079 66.358 90.6399 65.764 87.8239 64.576C85.0079 63.344 82.6099 61.65 80.6299 59.494C78.6499 57.294 77.1319 54.676 76.0759 51.64C75.0199 48.604 74.4919 45.238 74.4919 41.542C74.4919 37.846 75.0199 34.48 76.0759 31.444C77.1319 28.408 78.6499 25.812 80.6299 23.656C82.6099 21.456 85.0079 19.762 87.8239 18.574C90.6399 17.386 93.8079 16.792 97.3279 16.792C100.848 16.792 104.016 17.386 106.832 18.574C109.648 19.762 112.046 21.456 114.026 23.656C116.006 25.812 117.524 28.408 118.58 31.444C119.636 34.48 120.164 37.846 120.164 41.542ZM156.284 65.5L136.022 27.286V65.5H127.904V17.65H139.124L159.386 55.864V17.65H167.504V65.5H156.284ZM184.802 17.65V45.898C184.802 48.098 184.956 50.056 185.264 51.772C185.616 53.444 186.21 54.852 187.046 55.996C187.926 57.14 189.07 58.02 190.478 58.636C191.93 59.208 193.778 59.494 196.022 59.494C198.222 59.494 200.026 59.186 201.434 58.57C202.886 57.954 204.03 57.052 204.866 55.864C205.746 54.676 206.34 53.224 206.648 51.508C207 49.792 207.176 47.834 207.176 45.634V17.65H215.558V45.304C215.558 49.088 215.184 52.322 214.436 55.006C213.732 57.646 212.588 59.824 211.004 61.54C209.42 63.212 207.396 64.444 204.932 65.236C202.468 65.984 199.498 66.358 196.022 66.358C192.59 66.358 189.642 66.006 187.178 65.302C184.714 64.554 182.668 63.366 181.04 61.738C179.456 60.11 178.29 57.976 177.542 55.336C176.794 52.696 176.42 49.44 176.42 45.568V17.65H184.802ZM236.467 43.786C234.575 43.39 232.793 42.862 231.121 42.202C229.449 41.498 227.975 40.596 226.699 39.496C225.467 38.396 224.477 37.098 223.729 35.602C223.025 34.062 222.673 32.28 222.673 30.256C222.673 28.012 223.201 26.054 224.257 24.382C225.313 22.71 226.699 21.324 228.415 20.224C230.131 19.08 232.067 18.222 234.223 17.65C236.379 17.078 238.557 16.792 240.757 16.792C243.133 16.792 245.355 17.078 247.423 17.65C249.491 18.178 251.339 19.036 252.967 20.224C254.595 21.368 255.959 22.842 257.059 24.646C258.203 26.406 259.017 28.54 259.501 31.048H251.383C251.031 29.596 250.481 28.408 249.733 27.484C248.985 26.516 248.105 25.768 247.093 25.24C246.081 24.668 244.981 24.272 243.793 24.052C242.649 23.788 241.483 23.656 240.295 23.656C239.371 23.656 238.359 23.766 237.259 23.986C236.203 24.206 235.213 24.58 234.289 25.108C233.409 25.592 232.661 26.23 232.045 27.022C231.429 27.814 231.121 28.804 231.121 29.992C231.121 31.84 231.781 33.27 233.101 34.282C234.465 35.25 236.181 35.932 238.249 36.328L244.123 37.45C246.235 37.846 248.259 38.374 250.195 39.034C252.175 39.65 253.913 40.508 255.409 41.608C256.949 42.708 258.181 44.072 259.105 45.7C260.029 47.328 260.491 49.352 260.491 51.772C260.491 54.192 259.941 56.326 258.841 58.174C257.741 59.978 256.289 61.496 254.485 62.728C252.725 63.916 250.701 64.818 248.413 65.434C246.169 66.05 243.859 66.358 241.483 66.358C238.623 66.358 236.005 65.984 233.629 65.236C231.297 64.488 229.251 63.41 227.491 62.002C225.775 60.55 224.389 58.79 223.333 56.722C222.277 54.654 221.617 52.3 221.353 49.66H229.603C230.351 52.96 231.759 55.424 233.827 57.052C235.895 58.68 238.579 59.494 241.879 59.494C243.287 59.494 244.607 59.34 245.839 59.032C247.115 58.724 248.215 58.262 249.139 57.646C250.063 57.03 250.789 56.282 251.317 55.402C251.845 54.478 252.109 53.444 252.109 52.3C252.109 51.068 251.801 50.034 251.185 49.198C250.613 48.362 249.843 47.658 248.875 47.086C247.951 46.514 246.895 46.074 245.707 45.766C244.563 45.414 243.419 45.128 242.275 44.908L236.467 43.786Z" fill="#000055"/>
<rect width="600" height="87" transform="translate(0 83)" fill="#FF267E"/>
<path d="M61.3347 148.5L41.0727 110.286V148.5H32.9547V100.65H44.1747L64.4367 138.864V100.65H72.5547V148.5H61.3347ZM95.1989 100.65H104.043L121.995 148.5H112.821L109.059 137.874H89.6549L85.9589 148.5H77.3789L95.1989 100.65ZM92.0969 130.878H106.551L99.2909 110.352L92.0969 130.878ZM157.783 100.65C160.423 100.65 162.953 100.804 165.373 101.112C167.837 101.42 169.993 102.102 171.841 103.158C173.733 104.214 175.251 105.732 176.395 107.712C177.539 109.692 178.111 112.354 178.111 115.698C178.111 118.734 177.583 121.198 176.527 123.09C175.471 124.982 174.041 126.478 172.237 127.578C170.433 128.678 168.299 129.426 165.835 129.822C163.371 130.218 160.731 130.416 157.915 130.416H150.391V148.5H142.009V100.65H157.783ZM150.391 107.382V123.552H158.179C159.763 123.552 161.237 123.464 162.601 123.288C163.965 123.112 165.153 122.76 166.165 122.232C167.177 121.704 167.969 120.934 168.541 119.922C169.113 118.866 169.399 117.48 169.399 115.764C169.399 113.828 169.069 112.31 168.409 111.21C167.749 110.066 166.869 109.23 165.769 108.702C164.713 108.13 163.481 107.778 162.073 107.646C160.665 107.47 159.235 107.382 157.783 107.382H150.391ZM202.654 128.304C202.258 128.348 201.84 128.37 201.4 128.37C201.004 128.37 200.586 128.37 200.146 128.37H192.028V148.5H183.646V100.65H198.892C202.412 100.65 205.492 100.87 208.132 101.31C210.816 101.75 213.038 102.498 214.798 103.554C216.602 104.61 217.944 106.04 218.824 107.844C219.748 109.604 220.21 111.804 220.21 114.444C220.21 120.604 217.218 124.718 211.234 126.786L222.19 148.5H212.752L202.654 128.304ZM192.028 107.382V121.704H200.344C202.148 121.704 203.754 121.594 205.162 121.374C206.57 121.154 207.736 120.78 208.66 120.252C209.628 119.724 210.354 118.998 210.838 118.074C211.366 117.15 211.63 115.962 211.63 114.51C211.63 112.926 211.322 111.672 210.706 110.748C210.134 109.824 209.342 109.12 208.33 108.636C207.318 108.108 206.086 107.778 204.634 107.646C203.226 107.47 201.708 107.382 200.08 107.382H192.028ZM231.315 100.65L243.459 138.6L255.273 100.65H264.117L247.749 148.5H238.773L222.207 100.65H231.315ZM277.364 148.5H268.982V100.65H277.364V148.5ZM324.68 101.046C335.636 101.046 342.83 108.702 342.896 120.846C342.896 135.102 330.356 148.5 316.298 148.5H296.3L296.498 147.642C298.082 147.444 300.656 145.794 301.58 141.9L309.764 107.844C310.556 104.676 310.028 102.3 307.52 101.904L307.718 101.046H324.68ZM316.496 147.312C328.508 147.312 336.164 131.604 336.098 118.602C336.032 109.164 333.062 104.28 326.99 102.696C325.01 102.168 321.776 102.102 318.41 102.102L307.784 146.388C310.028 146.982 313.724 147.312 316.496 147.312ZM384.368 99.594L385.226 112.596H384.17C383.312 105.072 380.54 102.102 370.772 102.102H364.04L359.552 120.648H365.69C371.036 120.648 373.676 118.734 374.798 115.368H375.788L372.752 128.04H371.762C372.29 123.75 370.772 121.836 365.426 121.836H359.288L353.48 145.86C354.998 146.718 357.638 147.378 360.938 147.378C368.792 147.378 374.534 143.418 379.286 135.102H380.54L373.61 149.622C372.026 149.028 369.914 148.5 365.294 148.5H342.062L342.326 147.576C344.636 147.312 346.352 145.728 347.144 142.362L355.592 107.25C356.45 103.686 355.526 102.234 353.216 101.904L353.48 100.98H375.128C380.21 100.98 382.982 100.188 384.368 99.594ZM424.339 112.134C424.537 121.506 414.307 127.974 403.747 127.974H397.411L394.045 141.834C393.451 144.474 393.451 147.246 396.157 147.642L395.959 148.5H381.571L381.769 147.642C384.145 147.312 385.927 145.728 386.785 141.834L394.969 107.778C395.695 104.94 395.629 102.3 392.791 101.904L392.989 100.98H409.819C419.323 100.98 424.273 105.27 424.339 112.134ZM402.757 126.918C410.743 126.918 416.947 119.328 416.947 112.266C416.947 106.392 413.383 102.036 407.641 102.036H403.615L397.741 126.39C398.599 126.588 400.117 126.918 402.757 126.918ZM442.249 149.358C432.151 149.358 426.079 142.824 426.079 132.462C426.079 116.622 437.893 100.122 454.459 100.122C464.359 100.122 470.101 106.524 470.101 116.886C470.101 132.594 457.759 149.358 442.249 149.358ZM444.625 147.708C455.779 147.708 462.181 132.528 462.181 119.196C462.181 109.956 459.079 101.772 451.687 101.772C440.467 101.772 433.933 116.886 433.933 130.218C433.933 138.6 436.771 147.708 444.625 147.708ZM486.867 147.312C498.021 147.312 502.377 139.92 506.865 131.208H507.921L500.067 150.282C498.879 149.358 497.691 148.5 493.467 148.5H467.529L503.235 102.168H494.787C485.283 102.168 480.927 107.712 476.703 115.302H475.647L482.775 99.132C484.623 100.122 486.207 100.98 491.091 100.98H512.937L477.825 146.586C479.805 147.048 482.577 147.312 486.867 147.312ZM523.207 148.5H508.621L508.819 147.576C511.327 147.18 512.977 145.596 513.901 141.9L522.217 107.448C522.877 104.676 522.547 102.3 519.841 101.904L520.039 100.98H534.691L534.427 101.904C532.645 102.102 530.533 102.894 529.411 107.448L521.095 141.966C520.369 144.738 520.897 147.18 523.471 147.576L523.207 148.5ZM567.377 100.98C571.733 100.98 574.967 100.122 576.551 99.396L575.825 114.576H574.835C574.703 108.372 573.845 101.97 564.209 101.97H561.899L552.395 141.9C551.669 144.804 552.131 147.18 554.573 147.576L554.375 148.5H539.921L540.119 147.642C541.703 147.444 544.211 146.058 545.201 141.9L554.771 101.97H552.527C542.891 101.97 538.997 108.372 536.027 114.576H534.839L541.373 99.396C542.957 99.99 545.069 100.98 549.821 100.98H567.377Z" fill="#000055"/>
</svg>
