<svg width="24" height="28" viewBox="0 0 24 28" fill="none" xmlns="http://www.w3.org/2000/svg">
<path fill-rule="evenodd" clip-rule="evenodd" d="M12 22C17.5228 22 22 17.5228 22 12C22 6.47715 17.5228 2 12 2C6.47715 2 2 6.47715 2 12C2 17.5228 6.47715 22 12 22ZM14.667 23.7026C20.0108 22.4898 24 17.7108 24 12C24 5.37258 18.6274 0 12 0C5.37258 0 0 5.37258 0 12C0 17.6119 3.85231 22.3241 9.05677 23.6364L14.667 27.9999V23.7026ZM13.2907 9.29068V18H10.7147V9.29068H13.2907ZM13.2907 5.80001V8.18934H10.7147V5.80001H13.2907Z" fill="#E3E3E3" fill-opacity="0.8"/>
</svg>
